<svg width="512" height="512" viewBox="0 0 512 512" fill="none" xmlns="http://www.w3.org/2000/svg">
  <circle cx="256" cy="256" r="256" fill="#3B82F6"/>
  <path d="M184 144C161.909 144 144 161.909 144 184C144 206.091 161.909 224 184 224C206.091 224 224 206.091 224 184C224 161.909 206.091 144 184 144ZM184 200C175.163 200 168 192.837 168 184C168 175.163 175.163 168 184 168C192.837 168 200 175.163 200 184C200 192.837 192.837 200 184 200Z" fill="white"/>
  <path d="M328 288C305.909 288 288 305.909 288 328C288 350.091 305.909 368 328 368C350.091 368 368 350.091 368 328C368 305.909 350.091 288 328 288ZM328 344C319.163 344 312 336.837 312 328C312 319.163 319.163 312 328 312C336.837 312 344 319.163 344 328C344 336.837 336.837 344 328 344Z" fill="white"/>
  <path d="M360 144L152 368H184L392 144H360Z" fill="white"/>
</svg>
